# Blender v2.93.1 OBJ File: ''
# www.blender.org
mtllib Enter .mtl
o Plane
v -1.048203 0.000000 1.097465
v 1.332601 0.000000 1.097465
v -1.048203 0.000000 -1.283340
v 1.332601 0.000000 -1.283340
v -3.413931 0.000000 1.097465
v -3.413931 0.000000 -1.283340
v -1.048203 0.000000 2.231265
v 1.332601 0.000000 2.231265
v -1.006846 0.774153 -1.040241
v -1.000000 0.902302 -0.865322
v -1.004226 0.823193 -1.014590
v -1.002005 0.864768 -0.972340
v -1.000521 0.892547 -0.919924
v -1.006877 0.773577 1.013905
v -0.865322 0.902302 0.865322
v -0.993994 0.822838 0.998332
v -0.962568 0.864599 0.964626
v -0.917385 0.892504 0.917920
v 0.865322 0.902302 1.000000
v 1.047253 0.774112 1.013847
v 0.920458 0.892544 1.001054
v 0.974394 0.864756 1.004056
v 1.018918 0.823168 1.008548
v 1.047235 0.774161 -1.040239
v 0.865322 0.902302 -0.865322
v 1.018907 0.823199 -1.014588
v 0.974388 0.864771 -0.972339
v 0.920457 0.892548 -0.919924
v -2.852657 0.902302 -0.865322
v -3.047913 0.774172 -1.040236
v -2.908807 0.892549 -0.919924
v -2.965631 0.864774 -0.972338
v -3.014479 0.823205 -1.014586
v -3.048020 0.773947 1.013865
v -2.852657 0.902302 0.865322
v -3.014545 0.823066 0.998307
v -2.965663 0.864708 0.964615
v -2.908815 0.892532 0.917917
v -0.865322 0.902302 1.817773
v -1.006873 0.773643 1.992207
v -0.917384 0.892509 1.872338
v -0.962567 0.864619 1.924649
v -0.993991 0.822879 1.966741
v 1.047325 0.773917 1.992122
v 0.865322 0.902302 1.817773
v 1.018963 0.823048 1.966689
v 0.974415 0.864699 1.924624
v 0.920463 0.892530 1.872332
v -1.027525 0.387076 -1.161791
v -3.230922 0.387086 -1.161788
v 1.189918 0.387081 -1.161789
v -1.027540 0.386788 1.055685
v -1.027538 0.386821 2.111736
v -3.230976 0.386973 1.055665
v 1.189927 0.387056 1.055656
v 1.189963 0.386959 2.111694
vt 0.158285 0.277277
vt 0.388246 0.277277
vt 0.388246 0.507237
vt 0.158285 0.507237
vt 0.158285 0.048772
vt 0.388246 0.048772
vt 0.048772 0.507237
vt 0.048772 0.277277
vt 0.912577 0.062554
vt 0.912577 0.276736
vt 0.873926 0.274738
vt 0.873925 0.076336
vt 0.912576 0.489561
vt 0.873924 0.471884
vt 0.899366 0.718330
vt 0.899367 0.616326
vt 0.935582 0.627871
vt 0.935578 0.722364
vt 0.100503 0.616522
vt 0.100515 0.830705
vt 0.059542 0.826668
vt 0.059518 0.628263
vt 0.588120 0.226460
vt 0.575112 0.059299
vt 0.755282 0.059300
vt 0.755282 0.239470
vt 0.722620 0.528882
vt 0.722606 0.743069
vt 0.683498 0.729291
vt 0.683526 0.530878
vt 0.536227 0.538435
vt 0.536217 0.640437
vt 0.496871 0.644475
vt 0.496891 0.549984
vt 0.285570 0.622453
vt 0.285588 0.835282
vt 0.248893 0.837278
vt 0.248858 0.640125
vt 0.536215 0.854619
vt 0.496866 0.842879
vt 0.496124 0.226459
vt 0.496124 0.059298
vt 0.491396 0.840401
vt 0.491400 0.644987
vt 0.485790 0.836320
vt 0.485792 0.645421
vt 0.574709 0.048775
vt 0.765608 0.048777
vt 0.760553 0.053978
vt 0.575007 0.053976
vt 0.868581 0.274485
vt 0.868580 0.079072
vt 0.863153 0.274271
vt 0.863152 0.083372
vt 0.765608 0.239675
vt 0.760553 0.239523
vt 0.054042 0.825165
vt 0.054027 0.630741
vt 0.048779 0.821911
vt 0.048772 0.634821
vt 0.765608 0.429340
vt 0.578519 0.429341
vt 0.583038 0.423842
vt 0.760553 0.423843
vt 0.588121 0.418415
vt 0.755282 0.418416
vt 0.243904 0.838522
vt 0.243882 0.643358
vt 0.239042 0.841558
vt 0.239032 0.648080
vt 0.578518 0.235864
vt 0.583037 0.231492
vt 0.868580 0.468654
vt 0.863152 0.463936
vt 0.678217 0.726552
vt 0.678234 0.532122
vt 0.673108 0.722249
vt 0.673116 0.535157
vt 0.485790 0.235863
vt 0.485792 0.048772
vt 0.490851 0.053975
vt 0.490851 0.231491
vt 0.491412 0.552441
vt 0.485798 0.556504
vt 0.940491 0.630330
vt 0.940489 0.723869
vt 0.945253 0.634396
vt 0.945253 0.727124
vt 0.575564 0.636399
vt 0.575564 0.866359
vt 0.322282 0.604782
vt 0.322282 0.833286
vt 0.575564 0.526886
vt 0.761713 0.526886
vt 0.761713 0.756846
vt 0.141488 0.604782
vt 0.141488 0.834742
vt 0.863154 0.714295
vt 0.863152 0.604782
vt 0.951228 0.278733
vt 0.951228 0.507237
vt 0.951228 0.048772
vn 0.0000 -1.0000 0.0000
vn -0.0000 0.2996 -0.9541
vn -0.9986 0.0533 -0.0000
vn -0.9041 0.4274 -0.0000
vn 0.0000 1.0000 -0.0000
vn 0.0000 0.2952 0.9554
vn 0.9383 0.3459 -0.0000
vn -0.0000 0.1074 0.9942
vn 0.8659 0.5002 0.0000
vn 0.6826 0.7308 0.0000
vn 0.4579 0.8890 0.0000
vn 0.1742 0.9847 0.0000
vn -0.0000 0.4635 -0.8861
vn -0.0000 0.7128 -0.7014
vn -0.0000 0.8836 -0.4683
vn -0.0000 0.9844 -0.1759
vn -0.8263 0.5633 0.0000
vn -0.6483 0.7614 0.0000
vn -0.4394 0.8983 0.0000
vn -0.1713 0.9852 0.0000
vn 0.0000 0.3017 0.9534
vn 0.0000 0.6285 0.7778
vn 0.0000 0.8588 0.5124
vn 0.0000 0.9831 0.1829
vn -0.0000 0.4596 0.8881
vn -0.0000 0.7103 0.7039
vn -0.0000 0.8826 0.4701
vn -0.0000 0.9843 0.1765
vn 0.8660 0.5001 0.0000
vn 0.6828 0.7306 0.0000
vn 0.4582 0.8888 0.0000
vn 0.1744 0.9847 0.0000
vn -0.9674 0.2531 -0.0000
vn -0.7990 0.6014 -0.0000
vn -0.5254 0.8509 -0.0000
vn -0.1849 0.9828 -0.0000
usemtl None
s off
f 1/1/1 3/2/1 4/3/1 2/4/1
f 1/1/1 5/5/1 6/6/1 3/2/1
f 2/4/1 8/7/1 7/8/1 1/1/1
f 51/9/2 49/10/2 9/11/2 24/12/2
f 49/10/2 50/13/2 30/14/2 9/11/2
f 52/15/3 53/16/3 40/17/3 14/18/3
f 50/19/4 54/20/4 34/21/4 30/22/4
f 15/23/5 19/24/5 25/25/5 10/26/5
f 53/27/6 56/28/6 44/29/6 40/30/6
f 56/31/7 55/32/7 20/33/7 44/34/7
f 54/35/8 52/36/8 14/37/8 34/38/8
f 55/32/7 51/39/7 24/40/7 20/33/7
f 19/24/5 15/23/5 39/41/5 45/42/5
f 20/33/9 24/40/9 26/43/9 23/44/9
f 23/44/10 26/43/10 27/45/10 22/46/10
f 22/47/11 27/48/11 28/49/11 21/50/11
f 21/50/12 28/49/12 25/25/12 19/24/12
f 24/12/13 9/11/13 11/51/13 26/52/13
f 26/52/14 11/51/14 12/53/14 27/54/14
f 27/48/15 12/55/15 13/56/15 28/49/15
f 28/49/16 13/56/16 10/26/16 25/25/16
f 30/22/17 34/21/17 36/57/17 33/58/17
f 33/58/18 36/57/18 37/59/18 32/60/18
f 32/61/19 37/62/19 38/63/19 31/64/19
f 31/64/20 38/63/20 35/65/20 29/66/20
f 34/38/21 14/37/21 16/67/21 36/68/21
f 36/68/22 16/67/22 17/69/22 37/70/22
f 37/62/23 17/71/23 18/72/23 38/63/23
f 38/63/24 18/72/24 15/23/24 35/65/24
f 9/11/13 30/14/13 33/73/13 11/51/13
f 11/51/14 33/73/14 32/74/14 12/53/14
f 12/55/15 32/61/15 31/64/15 13/56/15
f 13/56/16 31/64/16 29/66/16 10/26/16
f 40/30/25 44/29/25 46/75/25 43/76/25
f 43/76/26 46/75/26 47/77/26 42/78/26
f 42/79/27 47/80/27 48/81/27 41/82/27
f 41/82/28 48/81/28 45/42/28 39/41/28
f 44/34/29 20/33/29 23/44/29 46/83/29
f 46/83/30 23/44/30 22/46/30 47/84/30
f 47/80/31 22/47/31 21/50/31 48/81/31
f 48/81/32 21/50/32 19/24/32 45/42/32
f 14/18/33 40/17/33 43/85/33 16/86/33
f 16/86/34 43/85/34 42/87/34 17/88/34
f 17/71/35 42/79/35 41/82/35 18/72/35
f 18/72/36 41/82/36 39/41/36 15/23/36
f 15/23/5 10/26/5 29/66/5 35/65/5
f 2/89/7 4/90/7 51/39/7 55/32/7
f 5/91/8 1/92/8 52/36/8 54/35/8
f 8/93/7 2/89/7 55/32/7 56/31/7
f 7/94/6 8/95/6 56/28/6 53/27/6
f 6/96/4 5/97/4 54/20/4 50/19/4
f 1/98/3 7/99/3 53/16/3 52/15/3
f 3/100/2 6/101/2 50/13/2 49/10/2
f 4/102/2 3/100/2 49/10/2 51/9/2
